<svg width="1600" height="340" viewBox="0 0 1600 340" fill="none" xmlns="http://www.w3.org/2000/svg">
<rect width="1600" height="340" fill="white"/>
<path d="M731.291 178.049L725.486 160.892C725.056 159.803 724.597 158.527 724.11 157.065C723.623 155.574 723.135 153.969 722.648 152.249C722.218 153.998 721.759 155.617 721.272 157.108C720.785 158.599 720.326 159.889 719.896 160.978L714.134 178.049H731.291ZM754.382 202H743.116C741.855 202 740.837 201.713 740.063 201.14C739.289 200.538 738.701 199.778 738.3 198.861L734.602 187.939H710.78L707.082 198.861C706.767 199.664 706.193 200.395 705.362 201.054C704.559 201.685 703.556 202 702.352 202H691L715.252 139.349H730.13L754.382 202ZM771.104 137.629V202H757.774V137.629H771.104ZM796.067 202.688C793.945 202.688 792.068 202.387 790.434 201.785C788.828 201.154 787.467 200.28 786.349 199.162C785.259 198.015 784.428 196.639 783.855 195.034C783.281 193.429 782.995 191.637 782.995 189.659V166.611H779.211C778.523 166.611 777.935 166.396 777.448 165.966C776.96 165.507 776.717 164.848 776.717 163.988V158.785L783.812 157.409L786.435 146.53C786.779 145.154 787.753 144.466 789.359 144.466H796.325V157.495H807.376V166.611H796.325V188.756C796.325 189.788 796.568 190.648 797.056 191.336C797.572 191.995 798.303 192.325 799.249 192.325C799.736 192.325 800.137 192.282 800.453 192.196C800.797 192.081 801.083 191.967 801.313 191.852C801.571 191.709 801.8 191.594 802.001 191.508C802.23 191.393 802.488 191.336 802.775 191.336C803.176 191.336 803.491 191.436 803.721 191.637C803.979 191.809 804.237 192.096 804.495 192.497L808.537 198.818C806.817 200.108 804.882 201.083 802.732 201.742C800.582 202.373 798.36 202.688 796.067 202.688ZM836.124 183.854C833.458 183.969 831.265 184.198 829.545 184.542C827.825 184.886 826.464 185.316 825.46 185.832C824.457 186.348 823.755 186.936 823.353 187.595C822.981 188.254 822.794 188.971 822.794 189.745C822.794 191.264 823.21 192.339 824.041 192.97C824.873 193.572 826.091 193.873 827.696 193.873C829.416 193.873 830.921 193.572 832.211 192.97C833.501 192.368 834.806 191.393 836.124 190.046V183.854ZM812.13 163.601C814.825 161.222 817.806 159.459 821.074 158.312C824.371 157.137 827.897 156.549 831.652 156.549C834.347 156.549 836.769 156.993 838.919 157.882C841.098 158.742 842.933 159.96 844.423 161.537C845.943 163.085 847.104 164.934 847.906 167.084C848.709 169.234 849.11 171.585 849.11 174.136V202H843.004C841.743 202 840.783 201.828 840.123 201.484C839.493 201.14 838.962 200.423 838.532 199.334L837.586 196.883C836.468 197.829 835.393 198.66 834.361 199.377C833.329 200.094 832.254 200.71 831.136 201.226C830.047 201.713 828.872 202.072 827.61 202.301C826.378 202.559 825.002 202.688 823.482 202.688C821.447 202.688 819.598 202.43 817.935 201.914C816.273 201.369 814.854 200.581 813.678 199.549C812.532 198.517 811.643 197.241 811.012 195.722C810.382 194.174 810.066 192.397 810.066 190.39C810.066 188.785 810.468 187.165 811.27 185.531C812.073 183.868 813.463 182.363 815.441 181.016C817.419 179.64 820.085 178.493 823.439 177.576C826.793 176.659 831.022 176.143 836.124 176.028V174.136C836.124 171.527 835.58 169.65 834.49 168.503C833.43 167.328 831.91 166.74 829.932 166.74C828.356 166.74 827.066 166.912 826.062 167.256C825.059 167.6 824.156 167.987 823.353 168.417C822.579 168.847 821.82 169.234 821.074 169.578C820.329 169.922 819.44 170.094 818.408 170.094C817.491 170.094 816.717 169.865 816.086 169.406C815.456 168.947 814.94 168.403 814.538 167.772L812.13 163.601ZM871.262 157.409V202H857.932V157.409H871.262ZM872.638 145.197C872.638 146.258 872.423 147.261 871.993 148.207C871.563 149.124 870.976 149.941 870.23 150.658C869.485 151.346 868.611 151.905 867.607 152.335C866.633 152.736 865.586 152.937 864.468 152.937C863.379 152.937 862.361 152.736 861.415 152.335C860.469 151.905 859.624 151.346 858.878 150.658C858.162 149.941 857.588 149.124 857.158 148.207C856.757 147.261 856.556 146.258 856.556 145.197C856.556 144.108 856.757 143.09 857.158 142.144C857.588 141.198 858.162 140.367 858.878 139.65C859.624 138.933 860.469 138.374 861.415 137.973C862.361 137.572 863.379 137.371 864.468 137.371C865.586 137.371 866.633 137.572 867.607 137.973C868.611 138.374 869.485 138.933 870.23 139.65C870.976 140.367 871.563 141.198 871.993 142.144C872.423 143.09 872.638 144.108 872.638 145.197ZM893.029 164.289C894.405 161.881 895.982 159.989 897.759 158.613C899.565 157.237 901.629 156.549 903.951 156.549C905.958 156.549 907.592 157.022 908.853 157.968L907.993 167.772C907.85 168.403 907.606 168.833 907.262 169.062C906.947 169.291 906.502 169.406 905.929 169.406C905.7 169.406 905.399 169.392 905.026 169.363C904.653 169.334 904.266 169.306 903.865 169.277C903.464 169.22 903.048 169.177 902.618 169.148C902.217 169.091 901.844 169.062 901.5 169.062C899.551 169.062 897.988 169.578 896.813 170.61C895.666 171.642 894.692 173.075 893.889 174.91V202H880.559V157.409H888.471C889.13 157.409 889.675 157.466 890.105 157.581C890.564 157.696 890.936 157.882 891.223 158.14C891.538 158.369 891.768 158.685 891.911 159.086C892.083 159.487 892.226 159.975 892.341 160.548L893.029 164.289Z" fill="black"/>
<path d="M350.553 271.76C350.553 273.573 350.259 275.234 349.669 276.741C349.08 278.237 348.247 279.523 347.17 280.6C346.105 281.677 344.819 282.515 343.311 283.116C341.815 283.705 340.149 284 338.313 284H329.065V259.52H338.313C340.149 259.52 341.815 259.82 343.311 260.421C344.819 261.01 346.105 261.843 347.17 262.92C348.247 263.997 349.08 265.289 349.669 266.796C350.259 268.292 350.553 269.947 350.553 271.76ZM346.49 271.76C346.49 270.355 346.298 269.091 345.912 267.969C345.538 266.847 344.994 265.901 344.28 265.13C343.578 264.359 342.722 263.77 341.713 263.362C340.705 262.943 339.571 262.733 338.313 262.733H333.06V280.787H338.313C339.571 280.787 340.705 280.583 341.713 280.175C342.722 279.767 343.578 279.178 344.28 278.407C344.994 277.625 345.538 276.679 345.912 275.568C346.298 274.446 346.49 273.177 346.49 271.76ZM357.76 266.66V284H354.105V266.66H357.76ZM358.372 261.424C358.372 261.753 358.304 262.064 358.168 262.359C358.043 262.654 357.867 262.914 357.641 263.141C357.414 263.356 357.148 263.532 356.842 263.668C356.547 263.793 356.23 263.855 355.89 263.855C355.561 263.855 355.249 263.793 354.955 263.668C354.671 263.532 354.422 263.356 354.207 263.141C353.991 262.914 353.816 262.654 353.68 262.359C353.555 262.064 353.493 261.753 353.493 261.424C353.493 261.084 353.555 260.767 353.68 260.472C353.816 260.177 353.991 259.922 354.207 259.707C354.422 259.48 354.671 259.305 354.955 259.18C355.249 259.044 355.561 258.976 355.89 258.976C356.23 258.976 356.547 259.044 356.842 259.18C357.148 259.305 357.414 259.48 357.641 259.707C357.867 259.922 358.043 260.177 358.168 260.472C358.304 260.767 358.372 261.084 358.372 261.424ZM372.705 269.805C372.614 269.964 372.512 270.077 372.399 270.145C372.286 270.213 372.144 270.247 371.974 270.247C371.781 270.247 371.572 270.19 371.345 270.077C371.118 269.952 370.852 269.816 370.546 269.669C370.24 269.522 369.877 269.391 369.458 269.278C369.05 269.153 368.568 269.091 368.013 269.091C367.56 269.091 367.146 269.148 366.772 269.261C366.409 269.363 366.098 269.516 365.837 269.72C365.588 269.913 365.395 270.145 365.259 270.417C365.123 270.678 365.055 270.961 365.055 271.267C365.055 271.675 365.18 272.015 365.429 272.287C365.678 272.559 366.007 272.797 366.415 273.001C366.823 273.194 367.288 273.369 367.809 273.528C368.33 273.687 368.863 273.857 369.407 274.038C369.951 274.219 370.484 274.429 371.005 274.667C371.526 274.905 371.991 275.2 372.399 275.551C372.807 275.891 373.136 276.31 373.385 276.809C373.634 277.296 373.759 277.891 373.759 278.594C373.759 279.41 373.612 280.164 373.317 280.855C373.022 281.546 372.592 282.147 372.025 282.657C371.458 283.167 370.75 283.564 369.9 283.847C369.061 284.13 368.098 284.272 367.01 284.272C366.409 284.272 365.826 284.215 365.259 284.102C364.704 284 364.171 283.858 363.661 283.677C363.162 283.484 362.692 283.258 362.25 282.997C361.819 282.736 361.434 282.453 361.094 282.147L361.944 280.753C362.046 280.583 362.171 280.453 362.318 280.362C362.477 280.26 362.669 280.209 362.896 280.209C363.134 280.209 363.366 280.288 363.593 280.447C363.831 280.594 364.103 280.759 364.409 280.94C364.726 281.121 365.106 281.291 365.548 281.45C365.99 281.597 366.54 281.671 367.197 281.671C367.741 281.671 368.211 281.609 368.608 281.484C369.005 281.348 369.333 281.167 369.594 280.94C369.855 280.713 370.047 280.458 370.172 280.175C370.297 279.88 370.359 279.569 370.359 279.24C370.359 278.798 370.234 278.435 369.985 278.152C369.736 277.869 369.401 277.625 368.982 277.421C368.574 277.217 368.104 277.036 367.571 276.877C367.05 276.718 366.517 276.548 365.973 276.367C365.429 276.186 364.891 275.976 364.358 275.738C363.837 275.5 363.366 275.2 362.947 274.837C362.539 274.463 362.21 274.015 361.961 273.494C361.712 272.961 361.587 272.315 361.587 271.556C361.587 270.865 361.723 270.207 361.995 269.584C362.278 268.961 362.686 268.411 363.219 267.935C363.763 267.459 364.426 267.085 365.208 266.813C366.001 266.53 366.914 266.388 367.945 266.388C369.112 266.388 370.172 266.575 371.124 266.949C372.076 267.323 372.875 267.833 373.521 268.479L372.705 269.805ZM382.753 284.272C381.313 284.272 380.203 283.87 379.421 283.065C378.65 282.249 378.265 281.104 378.265 279.631V269.533H376.361C376.157 269.533 375.981 269.471 375.834 269.346C375.686 269.21 375.613 269.012 375.613 268.751V267.272L378.418 266.864L379.217 261.849C379.273 261.656 379.37 261.503 379.506 261.39C379.642 261.265 379.823 261.203 380.05 261.203H381.92V266.898H386.731V269.533H381.92V279.376C381.92 279.999 382.073 280.475 382.379 280.804C382.685 281.133 383.093 281.297 383.603 281.297C383.886 281.297 384.13 281.263 384.334 281.195C384.538 281.116 384.713 281.036 384.861 280.957C385.008 280.866 385.133 280.787 385.235 280.719C385.348 280.64 385.456 280.6 385.558 280.6C385.762 280.6 385.926 280.713 386.051 280.94L387.139 282.725C386.572 283.224 385.903 283.609 385.133 283.881C384.362 284.142 383.569 284.272 382.753 284.272ZM393.063 269.873C393.607 268.774 394.264 267.912 395.035 267.289C395.805 266.654 396.729 266.337 397.806 266.337C398.18 266.337 398.531 266.382 398.86 266.473C399.188 266.552 399.483 266.677 399.744 266.847L399.489 269.601C399.443 269.794 399.37 269.93 399.268 270.009C399.177 270.077 399.052 270.111 398.894 270.111C398.724 270.111 398.48 270.083 398.163 270.026C397.845 269.958 397.511 269.924 397.16 269.924C396.65 269.924 396.196 269.998 395.8 270.145C395.414 270.292 395.063 270.508 394.746 270.791C394.44 271.074 394.168 271.42 393.93 271.828C393.692 272.236 393.471 272.701 393.267 273.222V284H389.612V266.66H391.737C392.122 266.66 392.388 266.734 392.536 266.881C392.683 267.017 392.785 267.261 392.842 267.612L393.063 269.873ZM405.971 266.66V284H402.316V266.66H405.971ZM406.583 261.424C406.583 261.753 406.515 262.064 406.379 262.359C406.254 262.654 406.078 262.914 405.852 263.141C405.625 263.356 405.359 263.532 405.053 263.668C404.758 263.793 404.441 263.855 404.101 263.855C403.772 263.855 403.46 263.793 403.166 263.668C402.882 263.532 402.633 263.356 402.418 263.141C402.202 262.914 402.027 262.654 401.891 262.359C401.766 262.064 401.704 261.753 401.704 261.424C401.704 261.084 401.766 260.767 401.891 260.472C402.027 260.177 402.202 259.922 402.418 259.707C402.633 259.48 402.882 259.305 403.166 259.18C403.46 259.044 403.772 258.976 404.101 258.976C404.441 258.976 404.758 259.044 405.053 259.18C405.359 259.305 405.625 259.48 405.852 259.707C406.078 259.922 406.254 260.177 406.379 260.472C406.515 260.767 406.583 261.084 406.583 261.424ZM414.218 279.648C414.728 280.305 415.283 280.77 415.884 281.042C416.496 281.303 417.159 281.433 417.873 281.433C419.312 281.433 420.434 280.912 421.239 279.869C422.044 278.826 422.446 277.211 422.446 275.024C422.446 273.029 422.095 271.573 421.392 270.655C420.701 269.737 419.709 269.278 418.417 269.278C417.522 269.278 416.74 269.482 416.071 269.89C415.414 270.287 414.796 270.859 414.218 271.607V279.648ZM414.218 268.955C414.932 268.173 415.731 267.55 416.615 267.085C417.499 266.62 418.508 266.388 419.641 266.388C420.65 266.388 421.556 266.586 422.361 266.983C423.177 267.368 423.868 267.929 424.435 268.666C425.002 269.403 425.438 270.298 425.744 271.352C426.05 272.395 426.203 273.573 426.203 274.888C426.203 276.293 426.027 277.574 425.676 278.73C425.336 279.875 424.843 280.861 424.197 281.688C423.551 282.504 422.769 283.139 421.851 283.592C420.933 284.034 419.907 284.255 418.774 284.255C418.219 284.255 417.714 284.198 417.261 284.085C416.808 283.983 416.388 283.83 416.003 283.626C415.618 283.422 415.261 283.178 414.932 282.895C414.615 282.612 414.309 282.289 414.014 281.926L413.861 283.269C413.804 283.53 413.702 283.717 413.555 283.83C413.408 283.943 413.204 284 412.943 284H410.563V258.84H414.218V268.955ZM444.374 266.66V284H442.164C441.677 284 441.365 283.768 441.229 283.303L440.957 281.688C440.595 282.073 440.209 282.425 439.801 282.742C439.405 283.059 438.98 283.331 438.526 283.558C438.073 283.785 437.586 283.96 437.064 284.085C436.554 284.21 436.005 284.272 435.415 284.272C434.463 284.272 433.625 284.113 432.899 283.796C432.174 283.479 431.562 283.031 431.063 282.453C430.576 281.875 430.208 281.184 429.958 280.379C429.709 279.563 429.584 278.668 429.584 277.693V266.66H433.239V277.693C433.239 278.86 433.506 279.767 434.038 280.413C434.582 281.059 435.404 281.382 436.503 281.382C437.308 281.382 438.056 281.201 438.747 280.838C439.45 280.464 440.107 279.954 440.719 279.308V266.66H444.374ZM454.372 284.272C452.933 284.272 451.822 283.87 451.04 283.065C450.269 282.249 449.884 281.104 449.884 279.631V269.533H447.98C447.776 269.533 447.6 269.471 447.453 269.346C447.306 269.21 447.232 269.012 447.232 268.751V267.272L450.037 266.864L450.836 261.849C450.893 261.656 450.989 261.503 451.125 261.39C451.261 261.265 451.442 261.203 451.669 261.203H453.539V266.898H458.35V269.533H453.539V279.376C453.539 279.999 453.692 280.475 453.998 280.804C454.304 281.133 454.712 281.297 455.222 281.297C455.505 281.297 455.749 281.263 455.953 281.195C456.157 281.116 456.333 281.036 456.48 280.957C456.627 280.866 456.752 280.787 456.854 280.719C456.967 280.64 457.075 280.6 457.177 280.6C457.381 280.6 457.545 280.713 457.67 280.94L458.758 282.725C458.191 283.224 457.523 283.609 456.752 283.881C455.981 284.142 455.188 284.272 454.372 284.272ZM472.471 273.375C472.471 272.763 472.38 272.196 472.199 271.675C472.029 271.142 471.774 270.683 471.434 270.298C471.094 269.901 470.669 269.595 470.159 269.38C469.66 269.153 469.082 269.04 468.425 269.04C467.099 269.04 466.056 269.42 465.297 270.179C464.538 270.938 464.056 272.004 463.852 273.375H472.471ZM463.75 275.619C463.795 276.605 463.948 277.461 464.209 278.186C464.47 278.9 464.815 279.495 465.246 279.971C465.688 280.447 466.209 280.804 466.81 281.042C467.422 281.269 468.102 281.382 468.85 281.382C469.564 281.382 470.182 281.303 470.703 281.144C471.224 280.974 471.678 280.793 472.063 280.6C472.448 280.396 472.777 280.215 473.049 280.056C473.321 279.886 473.57 279.801 473.797 279.801C474.092 279.801 474.318 279.914 474.477 280.141L475.514 281.484C475.083 281.994 474.596 282.425 474.052 282.776C473.508 283.127 472.93 283.416 472.318 283.643C471.706 283.858 471.077 284.011 470.431 284.102C469.785 284.204 469.156 284.255 468.544 284.255C467.343 284.255 466.226 284.057 465.195 283.66C464.175 283.252 463.285 282.657 462.526 281.875C461.778 281.093 461.189 280.124 460.758 278.968C460.339 277.812 460.129 276.48 460.129 274.973C460.129 273.772 460.316 272.65 460.69 271.607C461.075 270.564 461.619 269.658 462.322 268.887C463.036 268.116 463.897 267.51 464.906 267.068C465.926 266.615 467.076 266.388 468.357 266.388C469.422 266.388 470.408 266.564 471.315 266.915C472.222 267.255 473.004 267.759 473.661 268.428C474.318 269.097 474.828 269.918 475.191 270.893C475.565 271.856 475.752 272.956 475.752 274.191C475.752 274.758 475.69 275.137 475.565 275.33C475.44 275.523 475.214 275.619 474.885 275.619H463.75ZM490.228 270.927C489.718 270.27 489.157 269.811 488.545 269.55C487.933 269.289 487.27 269.159 486.556 269.159C485.128 269.159 484.011 269.686 483.207 270.74C482.402 271.783 482 273.33 482 275.381C482 276.446 482.09 277.359 482.272 278.118C482.453 278.866 482.714 279.478 483.054 279.954C483.394 280.43 483.807 280.776 484.295 280.991C484.782 281.206 485.332 281.314 485.944 281.314C486.873 281.314 487.672 281.116 488.341 280.719C489.021 280.311 489.65 279.739 490.228 279.002V270.927ZM493.883 258.84V284H491.673C491.185 284 490.874 283.768 490.738 283.303L490.415 281.416C489.689 282.266 488.862 282.952 487.933 283.473C487.015 283.994 485.944 284.255 484.72 284.255C483.745 284.255 482.861 284.062 482.068 283.677C481.274 283.28 480.594 282.708 480.028 281.96C479.461 281.212 479.019 280.288 478.702 279.189C478.396 278.078 478.243 276.809 478.243 275.381C478.243 274.089 478.413 272.893 478.753 271.794C479.104 270.695 479.603 269.743 480.249 268.938C480.895 268.122 481.677 267.487 482.595 267.034C483.524 266.569 484.561 266.337 485.706 266.337C486.726 266.337 487.593 266.501 488.307 266.83C489.021 267.147 489.661 267.595 490.228 268.173V258.84H493.883ZM499.984 283.983C499.655 283.983 499.355 283.926 499.083 283.813C498.811 283.688 498.573 283.524 498.369 283.32C498.176 283.105 498.023 282.855 497.91 282.572C497.808 282.289 497.757 281.977 497.757 281.637C497.757 281.342 497.808 281.065 497.91 280.804C498.023 280.543 498.176 280.317 498.369 280.124C498.573 279.931 498.811 279.784 499.083 279.682C499.366 279.569 499.672 279.512 500.001 279.512C500.386 279.512 500.726 279.586 501.021 279.733C501.316 279.869 501.559 280.062 501.752 280.311C501.956 280.549 502.103 280.832 502.194 281.161C502.296 281.478 502.347 281.818 502.347 282.181C502.347 282.702 502.268 283.252 502.109 283.83C501.962 284.408 501.735 284.98 501.429 285.547C501.134 286.125 500.766 286.686 500.324 287.23C499.893 287.774 499.4 288.273 498.845 288.726L498.216 288.148C498.125 288.057 498.057 287.972 498.012 287.893C497.978 287.814 497.961 287.712 497.961 287.587C497.961 287.394 498.057 287.213 498.25 287.043C498.363 286.918 498.511 286.754 498.692 286.55C498.873 286.346 499.055 286.114 499.236 285.853C499.417 285.592 499.582 285.303 499.729 284.986C499.888 284.669 500.001 284.334 500.069 283.983H499.984ZM529.479 280.668V284H515.335V259.52H519.313V280.668H529.479ZM536.027 266.66V284H532.372V266.66H536.027ZM536.639 261.424C536.639 261.753 536.571 262.064 536.435 262.359C536.311 262.654 536.135 262.914 535.908 263.141C535.682 263.356 535.415 263.532 535.109 263.668C534.815 263.793 534.497 263.855 534.157 263.855C533.829 263.855 533.517 263.793 533.222 263.668C532.939 263.532 532.69 263.356 532.474 263.141C532.259 262.914 532.083 262.654 531.947 262.359C531.823 262.064 531.76 261.753 531.76 261.424C531.76 261.084 531.823 260.767 531.947 260.472C532.083 260.177 532.259 259.922 532.474 259.707C532.69 259.48 532.939 259.305 533.222 259.18C533.517 259.044 533.829 258.976 534.157 258.976C534.497 258.976 534.815 259.044 535.109 259.18C535.415 259.305 535.682 259.48 535.908 259.707C536.135 259.922 536.311 260.177 536.435 260.472C536.571 260.767 536.639 261.084 536.639 261.424ZM546.808 275.177C547.941 275.177 548.791 274.888 549.358 274.31C549.924 273.732 550.208 272.978 550.208 272.049C550.208 271.097 549.924 270.343 549.358 269.788C548.791 269.233 547.941 268.955 546.808 268.955C545.686 268.955 544.836 269.233 544.258 269.788C543.691 270.343 543.408 271.097 543.408 272.049C543.408 272.502 543.481 272.922 543.629 273.307C543.776 273.692 543.991 274.027 544.275 274.31C544.558 274.582 544.909 274.797 545.329 274.956C545.759 275.103 546.252 275.177 546.808 275.177ZM551.891 284.85C551.891 284.465 551.777 284.159 551.551 283.932C551.335 283.694 551.041 283.513 550.667 283.388C550.293 283.252 549.856 283.156 549.358 283.099C548.859 283.031 548.326 282.986 547.76 282.963C547.204 282.929 546.632 282.901 546.043 282.878C545.465 282.844 544.904 282.787 544.36 282.708C543.816 282.991 543.368 283.331 543.017 283.728C542.677 284.125 542.507 284.584 542.507 285.105C542.507 285.445 542.592 285.762 542.762 286.057C542.943 286.352 543.215 286.607 543.578 286.822C543.952 287.037 544.422 287.207 544.989 287.332C545.567 287.457 546.258 287.519 547.063 287.519C548.672 287.519 549.879 287.27 550.684 286.771C551.488 286.272 551.891 285.632 551.891 284.85ZM555.563 267.289V268.649C555.563 269.102 555.291 269.38 554.747 269.482L553.013 269.771C553.307 270.428 553.455 271.159 553.455 271.964C553.455 272.814 553.285 273.585 552.945 274.276C552.616 274.967 552.157 275.557 551.568 276.044C550.978 276.531 550.276 276.905 549.46 277.166C548.644 277.427 547.76 277.557 546.808 277.557C546.445 277.557 546.088 277.54 545.737 277.506C545.397 277.461 545.062 277.404 544.734 277.336C544.405 277.529 544.161 277.733 544.003 277.948C543.844 278.163 543.765 278.384 543.765 278.611C543.765 278.985 543.929 279.263 544.258 279.444C544.586 279.625 545.017 279.756 545.55 279.835C546.094 279.914 546.711 279.965 547.403 279.988C548.094 280.011 548.797 280.05 549.511 280.107C550.225 280.164 550.927 280.26 551.619 280.396C552.31 280.521 552.922 280.736 553.455 281.042C553.999 281.337 554.435 281.739 554.764 282.249C555.092 282.759 555.257 283.422 555.257 284.238C555.257 284.986 555.07 285.717 554.696 286.431C554.322 287.145 553.778 287.78 553.064 288.335C552.361 288.89 551.5 289.332 550.48 289.661C549.46 290.001 548.298 290.171 546.995 290.171C545.703 290.171 544.575 290.046 543.612 289.797C542.66 289.548 541.861 289.208 541.215 288.777C540.58 288.358 540.104 287.87 539.787 287.315C539.481 286.76 539.328 286.182 539.328 285.581C539.328 284.765 539.583 284.068 540.093 283.49C540.614 282.912 541.317 282.459 542.201 282.13C541.725 281.903 541.339 281.592 541.045 281.195C540.761 280.798 540.62 280.277 540.62 279.631C540.62 279.121 540.807 278.588 541.181 278.033C541.555 277.478 542.116 277.007 542.864 276.622C542.002 276.146 541.322 275.517 540.824 274.735C540.325 273.942 540.076 273.018 540.076 271.964C540.076 271.103 540.24 270.326 540.569 269.635C540.909 268.944 541.379 268.354 541.98 267.867C542.58 267.38 543.289 267.006 544.105 266.745C544.932 266.484 545.833 266.354 546.808 266.354C548.304 266.354 549.607 266.666 550.718 267.289H555.563ZM562.105 268.717C562.819 268.014 563.601 267.453 564.451 267.034C565.301 266.603 566.292 266.388 567.426 266.388C568.378 266.388 569.211 266.547 569.925 266.864C570.65 267.181 571.256 267.629 571.744 268.207C572.242 268.785 572.616 269.482 572.866 270.298C573.115 271.103 573.24 271.992 573.24 272.967V284H569.602V272.967C569.602 271.8 569.33 270.893 568.786 270.247C568.253 269.601 567.437 269.278 566.338 269.278C565.522 269.278 564.762 269.465 564.06 269.839C563.368 270.213 562.717 270.723 562.105 271.369V284H558.45V258.84H562.105V268.717ZM582.835 284.272C581.395 284.272 580.285 283.87 579.503 283.065C578.732 282.249 578.347 281.104 578.347 279.631V269.533H576.443C576.239 269.533 576.063 269.471 575.916 269.346C575.768 269.21 575.695 269.012 575.695 268.751V267.272L578.5 266.864L579.299 261.849C579.355 261.656 579.452 261.503 579.588 261.39C579.724 261.265 579.905 261.203 580.132 261.203H582.002V266.898H586.813V269.533H582.002V279.376C582.002 279.999 582.155 280.475 582.461 280.804C582.767 281.133 583.175 281.297 583.685 281.297C583.968 281.297 584.212 281.263 584.416 281.195C584.62 281.116 584.795 281.036 584.943 280.957C585.09 280.866 585.215 280.787 585.317 280.719C585.43 280.64 585.538 280.6 585.64 280.6C585.844 280.6 586.008 280.713 586.133 280.94L587.221 282.725C586.654 283.224 585.985 283.609 585.215 283.881C584.444 284.142 583.651 284.272 582.835 284.272ZM614.055 266.66L608.496 284H605.589C605.249 284 605.011 283.779 604.875 283.337L601.424 272.542C601.333 272.236 601.248 271.93 601.169 271.624C601.101 271.318 601.038 271.018 600.982 270.723C600.857 271.335 600.704 271.947 600.523 272.559L597.021 283.337C596.896 283.779 596.63 284 596.222 284H593.451L587.892 266.66H590.782C591.065 266.66 591.297 266.734 591.479 266.881C591.671 267.017 591.796 267.181 591.853 267.374L594.743 277.472C594.856 277.937 594.952 278.39 595.032 278.832C595.122 279.263 595.202 279.693 595.27 280.124C595.383 279.693 595.502 279.263 595.627 278.832C595.751 278.39 595.882 277.937 596.018 277.472L599.265 267.323C599.321 267.119 599.435 266.955 599.605 266.83C599.786 266.694 600.001 266.626 600.251 266.626H601.849C602.109 266.626 602.33 266.694 602.512 266.83C602.693 266.955 602.812 267.119 602.869 267.323L606.031 277.472C606.167 277.937 606.291 278.39 606.405 278.832C606.529 279.274 606.643 279.716 606.745 280.158C606.824 279.727 606.909 279.291 607 278.849C607.09 278.407 607.198 277.948 607.323 277.472L610.264 267.374C610.332 267.17 610.456 267 610.638 266.864C610.819 266.728 611.04 266.66 611.301 266.66H614.055ZM627.829 273.375C627.829 272.763 627.738 272.196 627.557 271.675C627.387 271.142 627.132 270.683 626.792 270.298C626.452 269.901 626.027 269.595 625.517 269.38C625.018 269.153 624.44 269.04 623.783 269.04C622.457 269.04 621.414 269.42 620.655 270.179C619.895 270.938 619.414 272.004 619.21 273.375H627.829ZM619.108 275.619C619.153 276.605 619.306 277.461 619.567 278.186C619.827 278.9 620.173 279.495 620.604 279.971C621.046 280.447 621.567 280.804 622.168 281.042C622.78 281.269 623.46 281.382 624.208 281.382C624.922 281.382 625.539 281.303 626.061 281.144C626.582 280.974 627.035 280.793 627.421 280.6C627.806 280.396 628.135 280.215 628.407 280.056C628.679 279.886 628.928 279.801 629.155 279.801C629.449 279.801 629.676 279.914 629.835 280.141L630.872 281.484C630.441 281.994 629.954 282.425 629.41 282.776C628.866 283.127 628.288 283.416 627.676 283.643C627.064 283.858 626.435 284.011 625.789 284.102C625.143 284.204 624.514 284.255 623.902 284.255C622.7 284.255 621.584 284.057 620.553 283.66C619.533 283.252 618.643 282.657 617.884 281.875C617.136 281.093 616.546 280.124 616.116 278.968C615.696 277.812 615.487 276.48 615.487 274.973C615.487 273.772 615.674 272.65 616.048 271.607C616.433 270.564 616.977 269.658 617.68 268.887C618.394 268.116 619.255 267.51 620.264 267.068C621.284 266.615 622.434 266.388 623.715 266.388C624.78 266.388 625.766 266.564 626.673 266.915C627.579 267.255 628.361 267.759 629.019 268.428C629.676 269.097 630.186 269.918 630.549 270.893C630.923 271.856 631.11 272.956 631.11 274.191C631.11 274.758 631.047 275.137 630.923 275.33C630.798 275.523 630.571 275.619 630.243 275.619H619.108ZM638.326 266.66V284H634.671V266.66H638.326ZM638.938 261.424C638.938 261.753 638.87 262.064 638.734 262.359C638.609 262.654 638.434 262.914 638.207 263.141C637.98 263.356 637.714 263.532 637.408 263.668C637.113 263.793 636.796 263.855 636.456 263.855C636.127 263.855 635.816 263.793 635.521 263.668C635.238 263.532 634.988 263.356 634.773 263.141C634.558 262.914 634.382 262.654 634.246 262.359C634.121 262.064 634.059 261.753 634.059 261.424C634.059 261.084 634.121 260.767 634.246 260.472C634.382 260.177 634.558 259.922 634.773 259.707C634.988 259.48 635.238 259.305 635.521 259.18C635.816 259.044 636.127 258.976 636.456 258.976C636.796 258.976 637.113 259.044 637.408 259.18C637.714 259.305 637.98 259.48 638.207 259.707C638.434 259.922 638.609 260.177 638.734 260.472C638.87 260.767 638.938 261.084 638.938 261.424ZM649.106 275.177C650.24 275.177 651.09 274.888 651.656 274.31C652.223 273.732 652.506 272.978 652.506 272.049C652.506 271.097 652.223 270.343 651.656 269.788C651.09 269.233 650.24 268.955 649.106 268.955C647.984 268.955 647.134 269.233 646.556 269.788C645.99 270.343 645.706 271.097 645.706 272.049C645.706 272.502 645.78 272.922 645.927 273.307C646.075 273.692 646.29 274.027 646.573 274.31C646.857 274.582 647.208 274.797 647.627 274.956C648.058 275.103 648.551 275.177 649.106 275.177ZM654.189 284.85C654.189 284.465 654.076 284.159 653.849 283.932C653.634 283.694 653.339 283.513 652.965 283.388C652.591 283.252 652.155 283.156 651.656 283.099C651.158 283.031 650.625 282.986 650.058 282.963C649.503 282.929 648.931 282.901 648.341 282.878C647.763 282.844 647.202 282.787 646.658 282.708C646.114 282.991 645.667 283.331 645.315 283.728C644.975 284.125 644.805 284.584 644.805 285.105C644.805 285.445 644.89 285.762 645.06 286.057C645.242 286.352 645.514 286.607 645.876 286.822C646.25 287.037 646.721 287.207 647.287 287.332C647.865 287.457 648.557 287.519 649.361 287.519C650.971 287.519 652.178 287.27 652.982 286.771C653.787 286.272 654.189 285.632 654.189 284.85ZM657.861 267.289V268.649C657.861 269.102 657.589 269.38 657.045 269.482L655.311 269.771C655.606 270.428 655.753 271.159 655.753 271.964C655.753 272.814 655.583 273.585 655.243 274.276C654.915 274.967 654.456 275.557 653.866 276.044C653.277 276.531 652.574 276.905 651.758 277.166C650.942 277.427 650.058 277.557 649.106 277.557C648.744 277.557 648.387 277.54 648.035 277.506C647.695 277.461 647.361 277.404 647.032 277.336C646.704 277.529 646.46 277.733 646.301 277.948C646.143 278.163 646.063 278.384 646.063 278.611C646.063 278.985 646.228 279.263 646.556 279.444C646.885 279.625 647.316 279.756 647.848 279.835C648.392 279.914 649.01 279.965 649.701 279.988C650.393 280.011 651.095 280.05 651.809 280.107C652.523 280.164 653.226 280.26 653.917 280.396C654.609 280.521 655.221 280.736 655.753 281.042C656.297 281.337 656.734 281.739 657.062 282.249C657.391 282.759 657.555 283.422 657.555 284.238C657.555 284.986 657.368 285.717 656.994 286.431C656.62 287.145 656.076 287.78 655.362 288.335C654.66 288.89 653.798 289.332 652.778 289.661C651.758 290.001 650.597 290.171 649.293 290.171C648.001 290.171 646.874 290.046 645.91 289.797C644.958 289.548 644.159 289.208 643.513 288.777C642.879 288.358 642.403 287.87 642.085 287.315C641.779 286.76 641.626 286.182 641.626 285.581C641.626 284.765 641.881 284.068 642.391 283.49C642.913 282.912 643.615 282.459 644.499 282.13C644.023 281.903 643.638 281.592 643.343 281.195C643.06 280.798 642.918 280.277 642.918 279.631C642.918 279.121 643.105 278.588 643.479 278.033C643.853 277.478 644.414 277.007 645.162 276.622C644.301 276.146 643.621 275.517 643.122 274.735C642.624 273.942 642.374 273.018 642.374 271.964C642.374 271.103 642.539 270.326 642.867 269.635C643.207 268.944 643.678 268.354 644.278 267.867C644.879 267.38 645.587 267.006 646.403 266.745C647.231 266.484 648.132 266.354 649.106 266.354C650.602 266.354 651.906 266.666 653.016 267.289H657.861ZM664.403 268.717C665.117 268.014 665.899 267.453 666.749 267.034C667.599 266.603 668.591 266.388 669.724 266.388C670.676 266.388 671.509 266.547 672.223 266.864C672.949 267.181 673.555 267.629 674.042 268.207C674.541 268.785 674.915 269.482 675.164 270.298C675.414 271.103 675.538 271.992 675.538 272.967V284H671.9V272.967C671.9 271.8 671.628 270.893 671.084 270.247C670.552 269.601 669.736 269.278 668.636 269.278C667.82 269.278 667.061 269.465 666.358 269.839C665.667 270.213 665.015 270.723 664.403 271.369V284H660.748V258.84H664.403V268.717ZM685.134 284.272C683.694 284.272 682.584 283.87 681.802 283.065C681.031 282.249 680.646 281.104 680.646 279.631V269.533H678.742C678.538 269.533 678.362 269.471 678.215 269.346C678.067 269.21 677.994 269.012 677.994 268.751V267.272L680.799 266.864L681.598 261.849C681.654 261.656 681.751 261.503 681.887 261.39C682.023 261.265 682.204 261.203 682.431 261.203H684.301V266.898H689.112V269.533H684.301V279.376C684.301 279.999 684.454 280.475 684.76 280.804C685.066 281.133 685.474 281.297 685.984 281.297C686.267 281.297 686.511 281.263 686.715 281.195C686.919 281.116 687.094 281.036 687.242 280.957C687.389 280.866 687.514 280.787 687.616 280.719C687.729 280.64 687.837 280.6 687.939 280.6C688.143 280.6 688.307 280.713 688.432 280.94L689.52 282.725C688.953 283.224 688.284 283.609 687.514 283.881C686.743 284.142 685.95 284.272 685.134 284.272ZM709.724 276.418C708.421 276.463 707.322 276.571 706.426 276.741C705.531 276.9 704.806 277.109 704.25 277.37C703.695 277.619 703.293 277.92 703.043 278.271C702.805 278.622 702.686 279.008 702.686 279.427C702.686 279.835 702.749 280.186 702.873 280.481C703.009 280.764 703.191 281.002 703.417 281.195C703.655 281.376 703.927 281.512 704.233 281.603C704.551 281.682 704.896 281.722 705.27 281.722C706.222 281.722 707.038 281.546 707.718 281.195C708.41 280.832 709.078 280.311 709.724 279.631V276.418ZM700.034 269.074C701.995 267.249 704.33 266.337 707.038 266.337C708.036 266.337 708.92 266.501 709.69 266.83C710.472 267.147 711.124 267.601 711.645 268.19C712.178 268.779 712.58 269.482 712.852 270.298C713.136 271.103 713.277 271.998 713.277 272.984V284H711.645C711.294 284 711.028 283.949 710.846 283.847C710.665 283.734 710.512 283.513 710.387 283.184L710.03 281.773C709.588 282.17 709.152 282.527 708.721 282.844C708.291 283.15 707.843 283.411 707.378 283.626C706.925 283.841 706.432 284 705.899 284.102C705.378 284.215 704.8 284.272 704.165 284.272C703.463 284.272 702.805 284.176 702.193 283.983C701.593 283.79 701.071 283.501 700.629 283.116C700.187 282.719 699.836 282.232 699.575 281.654C699.326 281.076 699.201 280.396 699.201 279.614C699.201 278.945 699.377 278.294 699.728 277.659C700.091 277.024 700.68 276.458 701.496 275.959C702.324 275.449 703.406 275.03 704.743 274.701C706.092 274.372 707.752 274.185 709.724 274.14V272.984C709.724 271.737 709.458 270.808 708.925 270.196C708.393 269.584 707.611 269.278 706.579 269.278C705.877 269.278 705.287 269.369 704.811 269.55C704.335 269.72 703.922 269.907 703.57 270.111C703.219 270.315 702.907 270.508 702.635 270.689C702.363 270.859 702.074 270.944 701.768 270.944C701.519 270.944 701.304 270.882 701.122 270.757C700.952 270.621 700.811 270.457 700.697 270.264L700.034 269.074ZM720.976 268.955C721.35 268.57 721.735 268.224 722.132 267.918C722.54 267.601 722.971 267.329 723.424 267.102C723.877 266.875 724.359 266.7 724.869 266.575C725.379 266.45 725.934 266.388 726.535 266.388C727.487 266.388 728.32 266.547 729.034 266.864C729.759 267.181 730.366 267.629 730.853 268.207C731.352 268.785 731.726 269.482 731.975 270.298C732.224 271.103 732.349 271.992 732.349 272.967V284H728.711V272.967C728.711 271.8 728.439 270.893 727.895 270.247C727.362 269.601 726.546 269.278 725.447 269.278C724.631 269.278 723.872 269.465 723.169 269.839C722.478 270.213 721.826 270.723 721.214 271.369V284H717.559V266.66H719.769C720.268 266.66 720.585 266.892 720.721 267.357L720.976 268.955ZM747.685 270.927C747.175 270.27 746.614 269.811 746.002 269.55C745.39 269.289 744.727 269.159 744.013 269.159C742.585 269.159 741.468 269.686 740.664 270.74C739.859 271.783 739.457 273.33 739.457 275.381C739.457 276.446 739.547 277.359 739.729 278.118C739.91 278.866 740.171 279.478 740.511 279.954C740.851 280.43 741.264 280.776 741.752 280.991C742.239 281.206 742.789 281.314 743.401 281.314C744.33 281.314 745.129 281.116 745.798 280.719C746.478 280.311 747.107 279.739 747.685 279.002V270.927ZM751.34 258.84V284H749.13C748.642 284 748.331 283.768 748.195 283.303L747.872 281.416C747.146 282.266 746.319 282.952 745.39 283.473C744.472 283.994 743.401 284.255 742.177 284.255C741.202 284.255 740.318 284.062 739.525 283.677C738.731 283.28 738.051 282.708 737.485 281.96C736.918 281.212 736.476 280.288 736.159 279.189C735.853 278.078 735.7 276.809 735.7 275.381C735.7 274.089 735.87 272.893 736.21 271.794C736.561 270.695 737.06 269.743 737.706 268.938C738.352 268.122 739.134 267.487 740.052 267.034C740.981 266.569 742.018 266.337 743.163 266.337C744.183 266.337 745.05 266.501 745.764 266.83C746.478 267.147 747.118 267.595 747.685 268.173V258.84H751.34ZM772.062 271.25C772.968 271.25 773.762 271.142 774.442 270.927C775.122 270.7 775.688 270.389 776.142 269.992C776.595 269.595 776.935 269.125 777.162 268.581C777.388 268.026 777.502 267.414 777.502 266.745C777.502 265.408 777.06 264.388 776.176 263.685C775.292 262.982 773.954 262.631 772.164 262.631H768.934V271.25H772.062ZM783.588 284H780.035C779.332 284 778.822 283.728 778.505 283.184L772.793 274.939C772.6 274.656 772.39 274.452 772.164 274.327C771.937 274.202 771.597 274.14 771.144 274.14H768.934V284H764.956V259.52H772.164C773.773 259.52 775.156 259.684 776.312 260.013C777.479 260.342 778.437 260.812 779.185 261.424C779.933 262.025 780.482 262.75 780.834 263.6C781.196 264.45 781.378 265.396 781.378 266.439C781.378 267.289 781.247 268.082 780.987 268.819C780.737 269.556 780.369 270.224 779.882 270.825C779.406 271.426 778.816 271.947 778.114 272.389C777.411 272.831 776.612 273.177 775.717 273.426C776.204 273.721 776.623 274.134 776.975 274.667L783.588 284ZM792.226 266.388C793.507 266.388 794.663 266.598 795.694 267.017C796.737 267.436 797.621 268.031 798.346 268.802C799.083 269.573 799.649 270.508 800.046 271.607C800.443 272.706 800.641 273.942 800.641 275.313C800.641 276.684 800.443 277.92 800.046 279.019C799.649 280.118 799.083 281.059 798.346 281.841C797.621 282.612 796.737 283.207 795.694 283.626C794.663 284.045 793.507 284.255 792.226 284.255C790.934 284.255 789.767 284.045 788.724 283.626C787.693 283.207 786.809 282.612 786.072 281.841C785.335 281.059 784.769 280.118 784.372 279.019C783.975 277.92 783.777 276.684 783.777 275.313C783.777 273.942 783.975 272.706 784.372 271.607C784.769 270.508 785.335 269.573 786.072 268.802C786.809 268.031 787.693 267.436 788.724 267.017C789.767 266.598 790.934 266.388 792.226 266.388ZM792.226 281.399C793.79 281.399 794.952 280.878 795.711 279.835C796.482 278.781 796.867 277.279 796.867 275.33C796.867 273.381 796.482 271.879 795.711 270.825C794.952 269.76 793.79 269.227 792.226 269.227C790.639 269.227 789.461 269.76 788.69 270.825C787.919 271.879 787.534 273.381 787.534 275.33C787.534 277.279 787.919 278.781 788.69 279.835C789.461 280.878 790.639 281.399 792.226 281.399ZM807.808 279.648C808.318 280.305 808.873 280.77 809.474 281.042C810.086 281.303 810.749 281.433 811.463 281.433C812.902 281.433 814.024 280.912 814.829 279.869C815.633 278.826 816.036 277.211 816.036 275.024C816.036 273.029 815.684 271.573 814.982 270.655C814.29 269.737 813.299 269.278 812.007 269.278C811.111 269.278 810.329 269.482 809.661 269.89C809.003 270.287 808.386 270.859 807.808 271.607V279.648ZM807.808 268.955C808.522 268.173 809.321 267.55 810.205 267.085C811.089 266.62 812.097 266.388 813.231 266.388C814.239 266.388 815.146 266.586 815.951 266.983C816.767 267.368 817.458 267.929 818.025 268.666C818.591 269.403 819.028 270.298 819.334 271.352C819.64 272.395 819.793 273.573 819.793 274.888C819.793 276.293 819.617 277.574 819.266 278.73C818.926 279.875 818.433 280.861 817.787 281.688C817.141 282.504 816.359 283.139 815.441 283.592C814.523 284.034 813.497 284.255 812.364 284.255C811.808 284.255 811.304 284.198 810.851 284.085C810.397 283.983 809.978 283.83 809.593 283.626C809.207 283.422 808.85 283.178 808.522 282.895C808.204 282.612 807.898 282.289 807.604 281.926L807.451 283.269C807.394 283.53 807.292 283.717 807.145 283.83C806.997 283.943 806.793 284 806.533 284H804.153V258.84H807.808V268.955ZM837.964 266.66V284H835.754C835.267 284 834.955 283.768 834.819 283.303L834.547 281.688C834.185 282.073 833.799 282.425 833.391 282.742C832.995 283.059 832.57 283.331 832.116 283.558C831.663 283.785 831.176 283.96 830.654 284.085C830.144 284.21 829.595 284.272 829.005 284.272C828.053 284.272 827.215 284.113 826.489 283.796C825.764 283.479 825.152 283.031 824.653 282.453C824.166 281.875 823.798 281.184 823.548 280.379C823.299 279.563 823.174 278.668 823.174 277.693V266.66H826.829V277.693C826.829 278.86 827.096 279.767 827.628 280.413C828.172 281.059 828.994 281.382 830.093 281.382C830.898 281.382 831.646 281.201 832.337 280.838C833.04 280.464 833.697 279.954 834.309 279.308V266.66H837.964ZM852.756 269.805C852.665 269.964 852.563 270.077 852.45 270.145C852.336 270.213 852.195 270.247 852.025 270.247C851.832 270.247 851.622 270.19 851.396 270.077C851.169 269.952 850.903 269.816 850.597 269.669C850.291 269.522 849.928 269.391 849.509 269.278C849.101 269.153 848.619 269.091 848.064 269.091C847.61 269.091 847.197 269.148 846.823 269.261C846.46 269.363 846.148 269.516 845.888 269.72C845.638 269.913 845.446 270.145 845.31 270.417C845.174 270.678 845.106 270.961 845.106 271.267C845.106 271.675 845.23 272.015 845.48 272.287C845.729 272.559 846.058 272.797 846.466 273.001C846.874 273.194 847.338 273.369 847.86 273.528C848.381 273.687 848.914 273.857 849.458 274.038C850.002 274.219 850.534 274.429 851.056 274.667C851.577 274.905 852.042 275.2 852.45 275.551C852.858 275.891 853.186 276.31 853.436 276.809C853.685 277.296 853.81 277.891 853.81 278.594C853.81 279.41 853.662 280.164 853.368 280.855C853.073 281.546 852.642 282.147 852.076 282.657C851.509 283.167 850.801 283.564 849.951 283.847C849.112 284.13 848.149 284.272 847.061 284.272C846.46 284.272 845.876 284.215 845.31 284.102C844.754 284 844.222 283.858 843.712 283.677C843.213 283.484 842.743 283.258 842.301 282.997C841.87 282.736 841.485 282.453 841.145 282.147L841.995 280.753C842.097 280.583 842.221 280.453 842.369 280.362C842.527 280.26 842.72 280.209 842.947 280.209C843.185 280.209 843.417 280.288 843.644 280.447C843.882 280.594 844.154 280.759 844.46 280.94C844.777 281.121 845.157 281.291 845.599 281.45C846.041 281.597 846.59 281.671 847.248 281.671C847.792 281.671 848.262 281.609 848.659 281.484C849.055 281.348 849.384 281.167 849.645 280.94C849.905 280.713 850.098 280.458 850.223 280.175C850.347 279.88 850.41 279.569 850.41 279.24C850.41 278.798 850.285 278.435 850.036 278.152C849.786 277.869 849.452 277.625 849.033 277.421C848.625 277.217 848.154 277.036 847.622 276.877C847.1 276.718 846.568 276.548 846.024 276.367C845.48 276.186 844.941 275.976 844.409 275.738C843.887 275.5 843.417 275.2 842.998 274.837C842.59 274.463 842.261 274.015 842.012 273.494C841.762 272.961 841.638 272.315 841.638 271.556C841.638 270.865 841.774 270.207 842.046 269.584C842.329 268.961 842.737 268.411 843.27 267.935C843.814 267.459 844.477 267.085 845.259 266.813C846.052 266.53 846.964 266.388 847.996 266.388C849.163 266.388 850.223 266.575 851.175 266.949C852.127 267.323 852.926 267.833 853.572 268.479L852.756 269.805ZM862.804 284.272C861.364 284.272 860.254 283.87 859.472 283.065C858.701 282.249 858.316 281.104 858.316 279.631V269.533H856.412C856.208 269.533 856.032 269.471 855.885 269.346C855.737 269.21 855.664 269.012 855.664 268.751V267.272L858.469 266.864L859.268 261.849C859.324 261.656 859.421 261.503 859.557 261.39C859.693 261.265 859.874 261.203 860.101 261.203H861.971V266.898H866.782V269.533H861.971V279.376C861.971 279.999 862.124 280.475 862.43 280.804C862.736 281.133 863.144 281.297 863.654 281.297C863.937 281.297 864.181 281.263 864.385 281.195C864.589 281.116 864.764 281.036 864.912 280.957C865.059 280.866 865.184 280.787 865.286 280.719C865.399 280.64 865.507 280.6 865.609 280.6C865.813 280.6 865.977 280.713 866.102 280.94L867.19 282.725C866.623 283.224 865.954 283.609 865.184 283.881C864.413 284.142 863.62 284.272 862.804 284.272ZM890.634 274.82L887.268 265.878C886.996 265.187 886.719 264.308 886.435 263.243C886.311 263.776 886.175 264.269 886.027 264.722C885.88 265.164 885.744 265.555 885.619 265.895L882.253 274.82H890.634ZM898.165 284H895.088C894.737 284 894.454 283.915 894.238 283.745C894.023 283.564 893.859 283.343 893.745 283.082L891.705 277.676H881.165L879.125 283.082C879.035 283.309 878.876 283.518 878.649 283.711C878.423 283.904 878.139 284 877.799 284H874.722L884.429 259.52H888.458L898.165 284ZM908.638 271.998C909.522 271.998 910.299 271.885 910.967 271.658C911.647 271.431 912.208 271.114 912.65 270.706C913.104 270.287 913.444 269.782 913.67 269.193C913.897 268.604 914.01 267.946 914.01 267.221C914.01 266.507 913.897 265.867 913.67 265.3C913.455 264.733 913.126 264.252 912.684 263.855C912.242 263.458 911.681 263.158 911.001 262.954C910.333 262.739 909.545 262.631 908.638 262.631H905V271.998H908.638ZM908.638 259.52C910.236 259.52 911.619 259.707 912.786 260.081C913.965 260.455 914.934 260.982 915.693 261.662C916.464 262.331 917.036 263.141 917.41 264.093C917.784 265.034 917.971 266.076 917.971 267.221C917.971 268.388 917.773 269.459 917.376 270.434C916.98 271.397 916.39 272.23 915.608 272.933C914.826 273.624 913.852 274.168 912.684 274.565C911.528 274.95 910.18 275.143 908.638 275.143H905V284H901.022V259.52H908.638ZM925.769 284H921.774V259.52H925.769V284ZM960.079 271.947V281.637C957.642 283.394 954.809 284.272 951.579 284.272C949.596 284.272 947.799 283.966 946.19 283.354C944.592 282.731 943.226 281.869 942.093 280.77C940.96 279.659 940.087 278.339 939.475 276.809C938.863 275.279 938.557 273.596 938.557 271.76C938.557 269.913 938.852 268.224 939.441 266.694C940.03 265.153 940.875 263.832 941.974 262.733C943.073 261.622 944.399 260.767 945.952 260.166C947.505 259.554 949.25 259.248 951.188 259.248C952.174 259.248 953.086 259.327 953.925 259.486C954.775 259.633 955.563 259.843 956.288 260.115C957.013 260.387 957.682 260.716 958.294 261.101C958.906 261.486 959.467 261.917 959.977 262.393L958.838 264.212C958.657 264.495 958.424 264.671 958.141 264.739C957.858 264.807 957.552 264.739 957.223 264.535C956.894 264.342 956.543 264.138 956.169 263.923C955.806 263.708 955.387 263.509 954.911 263.328C954.435 263.135 953.885 262.982 953.262 262.869C952.639 262.744 951.902 262.682 951.052 262.682C949.76 262.682 948.593 262.897 947.55 263.328C946.519 263.747 945.635 264.354 944.898 265.147C944.161 265.929 943.595 266.881 943.198 268.003C942.801 269.125 942.603 270.377 942.603 271.76C942.603 273.222 942.813 274.531 943.232 275.687C943.651 276.832 944.246 277.806 945.017 278.611C945.788 279.404 946.717 280.011 947.805 280.43C948.904 280.849 950.128 281.059 951.477 281.059C952.486 281.059 953.381 280.951 954.163 280.736C954.956 280.521 955.733 280.22 956.492 279.835V274.973H953.075C952.814 274.973 952.61 274.905 952.463 274.769C952.316 274.622 952.242 274.435 952.242 274.208V271.947H960.079ZM973.291 276.418C971.987 276.463 970.888 276.571 969.993 276.741C969.097 276.9 968.372 277.109 967.817 277.37C967.261 277.619 966.859 277.92 966.61 278.271C966.372 278.622 966.253 279.008 966.253 279.427C966.253 279.835 966.315 280.186 966.44 280.481C966.576 280.764 966.757 281.002 966.984 281.195C967.222 281.376 967.494 281.512 967.8 281.603C968.117 281.682 968.463 281.722 968.837 281.722C969.789 281.722 970.605 281.546 971.285 281.195C971.976 280.832 972.645 280.311 973.291 279.631V276.418ZM963.601 269.074C965.561 267.249 967.896 266.337 970.605 266.337C971.602 266.337 972.486 266.501 973.257 266.83C974.039 267.147 974.69 267.601 975.212 268.19C975.744 268.779 976.147 269.482 976.419 270.298C976.702 271.103 976.844 271.998 976.844 272.984V284H975.212C974.86 284 974.594 283.949 974.413 283.847C974.231 283.734 974.078 283.513 973.954 283.184L973.597 281.773C973.155 282.17 972.718 282.527 972.288 282.844C971.857 283.15 971.409 283.411 970.945 283.626C970.491 283.841 969.998 284 969.466 284.102C968.944 284.215 968.366 284.272 967.732 284.272C967.029 284.272 966.372 284.176 965.76 283.983C965.159 283.79 964.638 283.501 964.196 283.116C963.754 282.719 963.402 282.232 963.142 281.654C962.892 281.076 962.768 280.396 962.768 279.614C962.768 278.945 962.943 278.294 963.295 277.659C963.657 277.024 964.247 276.458 965.063 275.959C965.89 275.449 966.972 275.03 968.31 274.701C969.658 274.372 971.319 274.185 973.291 274.14V272.984C973.291 271.737 973.024 270.808 972.492 270.196C971.959 269.584 971.177 269.278 970.146 269.278C969.443 269.278 968.854 269.369 968.378 269.55C967.902 269.72 967.488 269.907 967.137 270.111C966.785 270.315 966.474 270.508 966.202 270.689C965.93 270.859 965.641 270.944 965.335 270.944C965.085 270.944 964.87 270.882 964.689 270.757C964.519 270.621 964.377 270.457 964.264 270.264L963.601 269.074ZM986.452 284.272C985.013 284.272 983.902 283.87 983.12 283.065C982.349 282.249 981.964 281.104 981.964 279.631V269.533H980.06C979.856 269.533 979.68 269.471 979.533 269.346C979.386 269.21 979.312 269.012 979.312 268.751V267.272L982.117 266.864L982.916 261.849C982.973 261.656 983.069 261.503 983.205 261.39C983.341 261.265 983.522 261.203 983.749 261.203H985.619V266.898H990.43V269.533H985.619V279.376C985.619 279.999 985.772 280.475 986.078 280.804C986.384 281.133 986.792 281.297 987.302 281.297C987.585 281.297 987.829 281.263 988.033 281.195C988.237 281.116 988.413 281.036 988.56 280.957C988.707 280.866 988.832 280.787 988.934 280.719C989.047 280.64 989.155 280.6 989.257 280.6C989.461 280.6 989.625 280.713 989.75 280.94L990.838 282.725C990.271 283.224 989.603 283.609 988.832 283.881C988.061 284.142 987.268 284.272 986.452 284.272ZM1004.55 273.375C1004.55 272.763 1004.46 272.196 1004.28 271.675C1004.11 271.142 1003.85 270.683 1003.51 270.298C1003.17 269.901 1002.75 269.595 1002.24 269.38C1001.74 269.153 1001.16 269.04 1000.51 269.04C999.179 269.04 998.137 269.42 997.377 270.179C996.618 270.938 996.136 272.004 995.932 273.375H1004.55ZM995.83 275.619C995.876 276.605 996.029 277.461 996.289 278.186C996.55 278.9 996.896 279.495 997.326 279.971C997.768 280.447 998.29 280.804 998.89 281.042C999.502 281.269 1000.18 281.382 1000.93 281.382C1001.64 281.382 1002.26 281.303 1002.78 281.144C1003.3 280.974 1003.76 280.793 1004.14 280.6C1004.53 280.396 1004.86 280.215 1005.13 280.056C1005.4 279.886 1005.65 279.801 1005.88 279.801C1006.17 279.801 1006.4 279.914 1006.56 280.141L1007.59 281.484C1007.16 281.994 1006.68 282.425 1006.13 282.776C1005.59 283.127 1005.01 283.416 1004.4 283.643C1003.79 283.858 1003.16 284.011 1002.51 284.102C1001.87 284.204 1001.24 284.255 1000.62 284.255C999.423 284.255 998.307 284.057 997.275 283.66C996.255 283.252 995.366 282.657 994.606 281.875C993.858 281.093 993.269 280.124 992.838 278.968C992.419 277.812 992.209 276.48 992.209 274.973C992.209 273.772 992.396 272.65 992.77 271.607C993.156 270.564 993.7 269.658 994.402 268.887C995.116 268.116 995.978 267.51 996.986 267.068C998.006 266.615 999.157 266.388 1000.44 266.388C1001.5 266.388 1002.49 266.564 1003.4 266.915C1004.3 267.255 1005.08 267.759 1005.74 268.428C1006.4 269.097 1006.91 269.918 1007.27 270.893C1007.65 271.856 1007.83 272.956 1007.83 274.191C1007.83 274.758 1007.77 275.137 1007.65 275.33C1007.52 275.523 1007.29 275.619 1006.97 275.619H995.83ZM1035.4 266.66L1029.84 284H1026.94C1026.6 284 1026.36 283.779 1026.22 283.337L1022.77 272.542C1022.68 272.236 1022.6 271.93 1022.52 271.624C1022.45 271.318 1022.39 271.018 1022.33 270.723C1022.2 271.335 1022.05 271.947 1021.87 272.559L1018.37 283.337C1018.24 283.779 1017.98 284 1017.57 284H1014.8L1009.24 266.66H1012.13C1012.41 266.66 1012.65 266.734 1012.83 266.881C1013.02 267.017 1013.14 267.181 1013.2 267.374L1016.09 277.472C1016.2 277.937 1016.3 278.39 1016.38 278.832C1016.47 279.263 1016.55 279.693 1016.62 280.124C1016.73 279.693 1016.85 279.263 1016.97 278.832C1017.1 278.39 1017.23 277.937 1017.37 277.472L1020.61 267.323C1020.67 267.119 1020.78 266.955 1020.95 266.83C1021.13 266.694 1021.35 266.626 1021.6 266.626H1023.2C1023.46 266.626 1023.68 266.694 1023.86 266.83C1024.04 266.955 1024.16 267.119 1024.22 267.323L1027.38 277.472C1027.51 277.937 1027.64 278.39 1027.75 278.832C1027.88 279.274 1027.99 279.716 1028.09 280.158C1028.17 279.727 1028.26 279.291 1028.35 278.849C1028.44 278.407 1028.55 277.948 1028.67 277.472L1031.61 267.374C1031.68 267.17 1031.8 267 1031.99 266.864C1032.17 266.728 1032.39 266.66 1032.65 266.66H1035.4ZM1047.1 276.418C1045.8 276.463 1044.7 276.571 1043.8 276.741C1042.91 276.9 1042.18 277.109 1041.63 277.37C1041.07 277.619 1040.67 277.92 1040.42 278.271C1040.18 278.622 1040.06 279.008 1040.06 279.427C1040.06 279.835 1040.13 280.186 1040.25 280.481C1040.39 280.764 1040.57 281.002 1040.79 281.195C1041.03 281.376 1041.3 281.512 1041.61 281.603C1041.93 281.682 1042.27 281.722 1042.65 281.722C1043.6 281.722 1044.42 281.546 1045.1 281.195C1045.79 280.832 1046.46 280.311 1047.1 279.631V276.418ZM1037.41 269.074C1039.37 267.249 1041.71 266.337 1044.42 266.337C1045.41 266.337 1046.3 266.501 1047.07 266.83C1047.85 267.147 1048.5 267.601 1049.02 268.19C1049.56 268.779 1049.96 269.482 1050.23 270.298C1050.51 271.103 1050.65 271.998 1050.65 272.984V284H1049.02C1048.67 284 1048.4 283.949 1048.22 283.847C1048.04 283.734 1047.89 283.513 1047.76 283.184L1047.41 281.773C1046.97 282.17 1046.53 282.527 1046.1 282.844C1045.67 283.15 1045.22 283.411 1044.76 283.626C1044.3 283.841 1043.81 284 1043.28 284.102C1042.76 284.215 1042.18 284.272 1041.54 284.272C1040.84 284.272 1040.18 284.176 1039.57 283.983C1038.97 283.79 1038.45 283.501 1038.01 283.116C1037.56 282.719 1037.21 282.232 1036.95 281.654C1036.7 281.076 1036.58 280.396 1036.58 279.614C1036.58 278.945 1036.75 278.294 1037.11 277.659C1037.47 277.024 1038.06 276.458 1038.87 275.959C1039.7 275.449 1040.78 275.03 1042.12 274.701C1043.47 274.372 1045.13 274.185 1047.1 274.14V272.984C1047.1 271.737 1046.84 270.808 1046.3 270.196C1045.77 269.584 1044.99 269.278 1043.96 269.278C1043.25 269.278 1042.66 269.369 1042.19 269.55C1041.71 269.72 1041.3 269.907 1040.95 270.111C1040.6 270.315 1040.28 270.508 1040.01 270.689C1039.74 270.859 1039.45 270.944 1039.15 270.944C1038.9 270.944 1038.68 270.882 1038.5 270.757C1038.33 270.621 1038.19 270.457 1038.07 270.264L1037.41 269.074ZM1069.86 266.66L1060.3 288.93C1060.18 289.191 1060.02 289.395 1059.84 289.542C1059.67 289.689 1059.41 289.763 1059.04 289.763H1056.34L1059.54 282.827L1052.47 266.66H1055.64C1055.95 266.66 1056.18 266.734 1056.34 266.881C1056.51 267.017 1056.64 267.181 1056.72 267.374L1060.85 277.217C1060.95 277.5 1061.04 277.784 1061.12 278.067C1061.21 278.339 1061.29 278.622 1061.37 278.917C1061.46 278.622 1061.55 278.333 1061.65 278.05C1061.74 277.767 1061.84 277.483 1061.95 277.2L1065.91 267.374C1065.99 267.17 1066.12 267 1066.3 266.864C1066.5 266.728 1066.71 266.66 1066.93 266.66H1069.86ZM1103.54 266.66L1097.98 284H1095.07C1094.73 284 1094.49 283.779 1094.36 283.337L1090.9 272.542C1090.81 272.236 1090.73 271.93 1090.65 271.624C1090.58 271.318 1090.52 271.018 1090.46 270.723C1090.34 271.335 1090.18 271.947 1090 272.559L1086.5 283.337C1086.38 283.779 1086.11 284 1085.7 284H1082.93L1077.37 266.66H1080.26C1080.55 266.66 1080.78 266.734 1080.96 266.881C1081.15 267.017 1081.28 267.181 1081.33 267.374L1084.22 277.472C1084.34 277.937 1084.43 278.39 1084.51 278.832C1084.6 279.263 1084.68 279.693 1084.75 280.124C1084.86 279.693 1084.98 279.263 1085.11 278.832C1085.23 278.39 1085.36 277.937 1085.5 277.472L1088.75 267.323C1088.8 267.119 1088.92 266.955 1089.09 266.83C1089.27 266.694 1089.48 266.626 1089.73 266.626H1091.33C1091.59 266.626 1091.81 266.694 1091.99 266.83C1092.17 266.955 1092.29 267.119 1092.35 267.323L1095.51 277.472C1095.65 277.937 1095.77 278.39 1095.89 278.832C1096.01 279.274 1096.12 279.716 1096.23 280.158C1096.3 279.727 1096.39 279.291 1096.48 278.849C1096.57 278.407 1096.68 277.948 1096.8 277.472L1099.74 267.374C1099.81 267.17 1099.94 267 1100.12 266.864C1100.3 266.728 1100.52 266.66 1100.78 266.66H1103.54ZM1109.65 269.873C1110.2 268.774 1110.85 267.912 1111.62 267.289C1112.4 266.654 1113.32 266.337 1114.4 266.337C1114.77 266.337 1115.12 266.382 1115.45 266.473C1115.78 266.552 1116.07 266.677 1116.33 266.847L1116.08 269.601C1116.03 269.794 1115.96 269.93 1115.86 270.009C1115.77 270.077 1115.64 270.111 1115.48 270.111C1115.31 270.111 1115.07 270.083 1114.75 270.026C1114.44 269.958 1114.1 269.924 1113.75 269.924C1113.24 269.924 1112.79 269.998 1112.39 270.145C1112 270.292 1111.65 270.508 1111.34 270.791C1111.03 271.074 1110.76 271.42 1110.52 271.828C1110.28 272.236 1110.06 272.701 1109.86 273.222V284H1106.2V266.66H1108.33C1108.71 266.66 1108.98 266.734 1109.13 266.881C1109.27 267.017 1109.37 267.261 1109.43 267.612L1109.65 269.873ZM1122.56 266.66V284H1118.91V266.66H1122.56ZM1123.17 261.424C1123.17 261.753 1123.1 262.064 1122.97 262.359C1122.84 262.654 1122.67 262.914 1122.44 263.141C1122.21 263.356 1121.95 263.532 1121.64 263.668C1121.35 263.793 1121.03 263.855 1120.69 263.855C1120.36 263.855 1120.05 263.793 1119.76 263.668C1119.47 263.532 1119.22 263.356 1119.01 263.141C1118.79 262.914 1118.62 262.654 1118.48 262.359C1118.36 262.064 1118.29 261.753 1118.29 261.424C1118.29 261.084 1118.36 260.767 1118.48 260.472C1118.62 260.177 1118.79 259.922 1119.01 259.707C1119.22 259.48 1119.47 259.305 1119.76 259.18C1120.05 259.044 1120.36 258.976 1120.69 258.976C1121.03 258.976 1121.35 259.044 1121.64 259.18C1121.95 259.305 1122.21 259.48 1122.44 259.707C1122.67 259.922 1122.84 260.177 1122.97 260.472C1123.1 260.767 1123.17 261.084 1123.17 261.424ZM1132.71 284.272C1131.27 284.272 1130.16 283.87 1129.38 283.065C1128.61 282.249 1128.22 281.104 1128.22 279.631V269.533H1126.32C1126.12 269.533 1125.94 269.471 1125.79 269.346C1125.65 269.21 1125.57 269.012 1125.57 268.751V267.272L1128.38 266.864L1129.18 261.849C1129.23 261.656 1129.33 261.503 1129.46 261.39C1129.6 261.265 1129.78 261.203 1130.01 261.203H1131.88V266.898H1139.53L1140.34 261.849C1140.39 261.656 1140.48 261.503 1140.62 261.39C1140.75 261.265 1140.93 261.203 1141.16 261.203H1143.03V266.898H1147.84V269.533H1143.03V279.376C1143.03 279.999 1143.18 280.475 1143.49 280.804C1143.8 281.133 1144.2 281.297 1144.71 281.297C1145 281.297 1145.24 281.263 1145.44 281.195C1145.66 281.116 1145.84 281.036 1145.99 280.957C1146.14 280.866 1146.26 280.787 1146.36 280.719C1146.48 280.64 1146.58 280.6 1146.67 280.6C1146.79 280.6 1146.89 280.628 1146.96 280.685C1147.03 280.73 1147.1 280.815 1147.18 280.94L1148.27 282.725C1147.69 283.224 1147.01 283.609 1146.24 283.881C1145.48 284.142 1144.7 284.272 1143.88 284.272C1142.43 284.272 1141.32 283.87 1140.55 283.065C1139.78 282.249 1139.39 281.104 1139.39 279.631V269.533H1131.88V279.376C1131.88 279.999 1132.03 280.475 1132.34 280.804C1132.64 281.133 1133.05 281.297 1133.56 281.297C1133.85 281.297 1134.09 281.263 1134.29 281.195C1134.5 281.116 1134.67 281.036 1134.82 280.957C1134.97 280.866 1135.09 280.787 1135.19 280.719C1135.31 280.64 1135.41 280.6 1135.52 280.6C1135.72 280.6 1135.89 280.713 1136.01 280.94L1137.1 282.725C1136.53 283.224 1135.86 283.609 1135.09 283.881C1134.32 284.142 1133.53 284.272 1132.71 284.272ZM1161.97 273.375C1161.97 272.763 1161.88 272.196 1161.7 271.675C1161.53 271.142 1161.27 270.683 1160.93 270.298C1160.59 269.901 1160.17 269.595 1159.66 269.38C1159.16 269.153 1158.58 269.04 1157.92 269.04C1156.6 269.04 1155.55 269.42 1154.79 270.179C1154.03 270.938 1153.55 272.004 1153.35 273.375H1161.97ZM1153.25 275.619C1153.29 276.605 1153.44 277.461 1153.71 278.186C1153.97 278.9 1154.31 279.495 1154.74 279.971C1155.18 280.447 1155.71 280.804 1156.31 281.042C1156.92 281.269 1157.6 281.382 1158.35 281.382C1159.06 281.382 1159.68 281.303 1160.2 281.144C1160.72 280.974 1161.17 280.793 1161.56 280.6C1161.94 280.396 1162.27 280.215 1162.55 280.056C1162.82 279.886 1163.07 279.801 1163.29 279.801C1163.59 279.801 1163.81 279.914 1163.97 280.141L1165.01 281.484C1164.58 281.994 1164.09 282.425 1163.55 282.776C1163 283.127 1162.43 283.416 1161.81 283.643C1161.2 283.858 1160.57 284.011 1159.93 284.102C1159.28 284.204 1158.65 284.255 1158.04 284.255C1156.84 284.255 1155.72 284.057 1154.69 283.66C1153.67 283.252 1152.78 282.657 1152.02 281.875C1151.27 281.093 1150.68 280.124 1150.25 278.968C1149.83 277.812 1149.63 276.48 1149.63 274.973C1149.63 273.772 1149.81 272.65 1150.19 271.607C1150.57 270.564 1151.12 269.658 1151.82 268.887C1152.53 268.116 1153.39 267.51 1154.4 267.068C1155.42 266.615 1156.57 266.388 1157.85 266.388C1158.92 266.388 1159.9 266.564 1160.81 266.915C1161.72 267.255 1162.5 267.759 1163.16 268.428C1163.81 269.097 1164.32 269.918 1164.69 270.893C1165.06 271.856 1165.25 272.956 1165.25 274.191C1165.25 274.758 1165.19 275.137 1165.06 275.33C1164.94 275.523 1164.71 275.619 1164.38 275.619H1153.25ZM1172.07 268.955C1172.45 268.57 1172.83 268.224 1173.23 267.918C1173.64 267.601 1174.07 267.329 1174.52 267.102C1174.98 266.875 1175.46 266.7 1175.97 266.575C1176.48 266.45 1177.03 266.388 1177.63 266.388C1178.58 266.388 1179.42 266.547 1180.13 266.864C1180.86 267.181 1181.46 267.629 1181.95 268.207C1182.45 268.785 1182.82 269.482 1183.07 270.298C1183.32 271.103 1183.45 271.992 1183.45 272.967V284H1179.81V272.967C1179.81 271.8 1179.54 270.893 1178.99 270.247C1178.46 269.601 1177.64 269.278 1176.54 269.278C1175.73 269.278 1174.97 269.465 1174.27 269.839C1173.58 270.213 1172.92 270.723 1172.31 271.369V284H1168.66V266.66H1170.87C1171.37 266.66 1171.68 266.892 1171.82 267.357L1172.07 268.955ZM1199.99 266.66V284H1196.34V266.66H1199.99ZM1200.6 261.424C1200.6 261.753 1200.53 262.064 1200.4 262.359C1200.27 262.654 1200.1 262.914 1199.87 263.141C1199.64 263.356 1199.38 263.532 1199.07 263.668C1198.78 263.793 1198.46 263.855 1198.12 263.855C1197.79 263.855 1197.48 263.793 1197.19 263.668C1196.9 263.532 1196.65 263.356 1196.44 263.141C1196.22 262.914 1196.05 262.654 1195.91 262.359C1195.79 262.064 1195.72 261.753 1195.72 261.424C1195.72 261.084 1195.79 260.767 1195.91 260.472C1196.05 260.177 1196.22 259.922 1196.44 259.707C1196.65 259.48 1196.9 259.305 1197.19 259.18C1197.48 259.044 1197.79 258.976 1198.12 258.976C1198.46 258.976 1198.78 259.044 1199.07 259.18C1199.38 259.305 1199.64 259.48 1199.87 259.707C1200.1 259.922 1200.27 260.177 1200.4 260.472C1200.53 260.767 1200.6 261.084 1200.6 261.424ZM1208 268.955C1208.37 268.57 1208.76 268.224 1209.16 267.918C1209.56 267.601 1209.99 267.329 1210.45 267.102C1210.9 266.875 1211.38 266.7 1211.89 266.575C1212.4 266.45 1212.96 266.388 1213.56 266.388C1214.51 266.388 1215.34 266.547 1216.06 266.864C1216.78 267.181 1217.39 267.629 1217.88 268.207C1218.38 268.785 1218.75 269.482 1219 270.298C1219.25 271.103 1219.37 271.992 1219.37 272.967V284H1215.73V272.967C1215.73 271.8 1215.46 270.893 1214.92 270.247C1214.39 269.601 1213.57 269.278 1212.47 269.278C1211.65 269.278 1210.9 269.465 1210.19 269.839C1209.5 270.213 1208.85 270.723 1208.24 271.369V284H1204.58V266.66H1206.79C1207.29 266.66 1207.61 266.892 1207.74 267.357L1208 268.955ZM1252.83 271.947V281.637C1250.39 283.394 1247.56 284.272 1244.33 284.272C1242.35 284.272 1240.55 283.966 1238.94 283.354C1237.34 282.731 1235.98 281.869 1234.84 280.77C1233.71 279.659 1232.84 278.339 1232.23 276.809C1231.61 275.279 1231.31 273.596 1231.31 271.76C1231.31 269.913 1231.6 268.224 1232.19 266.694C1232.78 265.153 1233.63 263.832 1234.73 262.733C1235.83 261.622 1237.15 260.767 1238.7 260.166C1240.26 259.554 1242 259.248 1243.94 259.248C1244.93 259.248 1245.84 259.327 1246.68 259.486C1247.53 259.633 1248.31 259.843 1249.04 260.115C1249.77 260.387 1250.43 260.716 1251.05 261.101C1251.66 261.486 1252.22 261.917 1252.73 262.393L1251.59 264.212C1251.41 264.495 1251.18 264.671 1250.89 264.739C1250.61 264.807 1250.3 264.739 1249.97 264.535C1249.65 264.342 1249.29 264.138 1248.92 263.923C1248.56 263.708 1248.14 263.509 1247.66 263.328C1247.19 263.135 1246.64 262.982 1246.01 262.869C1245.39 262.744 1244.65 262.682 1243.8 262.682C1242.51 262.682 1241.34 262.897 1240.3 263.328C1239.27 263.747 1238.39 264.354 1237.65 265.147C1236.91 265.929 1236.35 266.881 1235.95 268.003C1235.55 269.125 1235.35 270.377 1235.35 271.76C1235.35 273.222 1235.56 274.531 1235.98 275.687C1236.4 276.832 1237 277.806 1237.77 278.611C1238.54 279.404 1239.47 280.011 1240.56 280.43C1241.66 280.849 1242.88 281.059 1244.23 281.059C1245.24 281.059 1246.13 280.951 1246.91 280.736C1247.71 280.521 1248.48 280.22 1249.24 279.835V274.973H1245.83C1245.57 274.973 1245.36 274.905 1245.21 274.769C1245.07 274.622 1244.99 274.435 1244.99 274.208V271.947H1252.83ZM1264.14 266.388C1265.42 266.388 1266.58 266.598 1267.61 267.017C1268.65 267.436 1269.54 268.031 1270.26 268.802C1271 269.573 1271.57 270.508 1271.96 271.607C1272.36 272.706 1272.56 273.942 1272.56 275.313C1272.56 276.684 1272.36 277.92 1271.96 279.019C1271.57 280.118 1271 281.059 1270.26 281.841C1269.54 282.612 1268.65 283.207 1267.61 283.626C1266.58 284.045 1265.42 284.255 1264.14 284.255C1262.85 284.255 1261.68 284.045 1260.64 283.626C1259.61 283.207 1258.72 282.612 1257.99 281.841C1257.25 281.059 1256.68 280.118 1256.29 279.019C1255.89 277.92 1255.69 276.684 1255.69 275.313C1255.69 273.942 1255.89 272.706 1256.29 271.607C1256.68 270.508 1257.25 269.573 1257.99 268.802C1258.72 268.031 1259.61 267.436 1260.64 267.017C1261.68 266.598 1262.85 266.388 1264.14 266.388ZM1264.14 281.399C1265.71 281.399 1266.87 280.878 1267.63 279.835C1268.4 278.781 1268.78 277.279 1268.78 275.33C1268.78 273.381 1268.4 271.879 1267.63 270.825C1266.87 269.76 1265.71 269.227 1264.14 269.227C1262.56 269.227 1261.38 269.76 1260.61 270.825C1259.84 271.879 1259.45 273.381 1259.45 275.33C1259.45 277.279 1259.84 278.781 1260.61 279.835C1261.38 280.878 1262.56 281.399 1264.14 281.399Z" fill="#BBBBBB"/>
</svg>
